<svg width="158" height="163" viewBox="0 0 158 163" fill="none" xmlns="http://www.w3.org/2000/svg">
  <path d="M16.6163 71.7352C16.6163 71.7352 44.3098 70.6262 50.2944 25.1039C55.6089 -15.3242 102.307 3.07724 115.806 19.1928C133.293 40.0693 123.971 75.9811 146.592 80.5178C169.213 85.0545 154.441 135.495 120.104 130.667C77.3895 124.661 87.7239 149.621 74.9013 160.185C65.6988 167.767 27.9651 160.469 26.7075 132.945C25.6492 109.784 15.8794 109.857 8.95451 107.231C-1.03279 103.443 -7.32589 76.0122 16.6163 71.7352Z" fill="#DEE9FF"/>
  <path d="M110.759 122.29L83.5508 95.4053L78.1632 100.858L105.371 127.743L110.759 122.29Z" fill="#699CFF"/>
  <path d="M121.153 129.515L99.9849 108.598C99.867 108.482 99.6771 108.483 99.5606 108.601L91.5487 116.709C91.4323 116.827 91.4334 117.017 91.5512 117.133L112.719 138.05C112.837 138.166 113.027 138.165 113.143 138.047L121.155 129.939C121.272 129.821 121.271 129.631 121.153 129.515Z" fill="#0E84E5"/>
  <path d="M59.4364 108.927C78.1547 108.927 93.3289 93.7524 93.3289 75.0341C93.3289 56.3158 78.1547 41.1416 59.4364 41.1416C40.7181 41.1416 25.5439 56.3158 25.5439 75.0341C25.5439 93.7524 40.7181 108.927 59.4364 108.927Z" fill="#0E84E5"/>
  <path d="M59.4365 103.396C75.1006 103.396 87.7988 90.6982 87.7988 75.0342C87.7988 59.3701 75.1006 46.6719 59.4365 46.6719C43.7725 46.6719 31.0742 59.3701 31.0742 75.0342C31.0742 90.6982 43.7725 103.396 59.4365 103.396Z" fill="#D4E5FF"/>
</svg>
