<svg width="51" height="40" viewBox="0 0 51 40" fill="none" xmlns="http://www.w3.org/2000/svg">
  <g filter="url(#filter0_d_8902_262803)">
    <path d="M42.7749 20.1613C42.7749 20.8796 42.1926 21.4619 41.4742 21.4619H22.8008V4H41.4742C42.1926 4 42.7749 4.58228 42.7749 5.30061V20.1613Z" fill="#FFF481"/>
    <path d="M42.7774 11.0407C42.7774 11.3536 42.4606 11.6073 42.0698 11.6073H31.9099V4H42.0698C42.4606 4 42.7774 4.25367 42.7774 4.56661V11.0407Z" fill="#FFFAB6"/>
    <path d="M42.7741 16.5264C42.7741 17.2448 42.1918 17.827 41.4735 17.827H24.349C23.6307 17.827 23.0484 17.2448 23.0484 16.5264V4H9.30061C8.58228 4 8 4.58228 8 5.30061V21.4619H41.4735C42.1918 21.4619 42.7741 20.8796 42.7741 20.1613V16.5264Z" fill="#FFF052"/>
    <path d="M13.3905 7.76653C12.8703 7.76653 12.5691 8.05854 12.5691 8.67906V11.0974C12.5691 11.7179 12.8703 12.0099 13.3995 12.0099C14.1296 12.0099 14.1752 11.4533 14.2026 11.0974C14.2301 10.7597 14.5402 10.6685 14.9053 10.6685C15.3981 10.6685 15.6262 10.7962 15.6262 11.3438C15.6262 12.5575 14.6407 13.2511 13.3357 13.2511C12.1402 13.2511 11.1455 12.6671 11.1455 11.0975V8.67906C11.1455 7.10949 12.1402 6.52539 13.3357 6.52539C14.6406 6.52539 15.6262 7.18243 15.6262 8.34138C15.6262 8.88888 15.3981 9.01667 14.9144 9.01667C14.5311 9.01667 14.2209 8.91631 14.2026 8.58779C14.1935 8.35055 14.1661 7.76653 13.3905 7.76653Z" fill="#FF4B4B"/>
    <path d="M16.2717 11.0974V8.67906C16.2717 7.10949 17.2481 6.52539 18.5075 6.52539C19.7668 6.52539 20.7524 7.10941 20.7524 8.67906V11.0974C20.7524 12.667 19.7668 13.251 18.5075 13.251C17.2481 13.2511 16.2717 12.667 16.2717 11.0974ZM19.3288 8.67906C19.3288 8.04937 19.0185 7.76653 18.5075 7.76653C17.9965 7.76653 17.6953 8.04945 17.6953 8.67906V11.0974C17.6953 11.7271 17.9964 12.0099 18.5075 12.0099C19.0186 12.0099 19.3288 11.7271 19.3288 11.0974V8.67906Z" fill="#FF4B4B"/>
    <path d="M24.8744 10.8327C24.7556 11.0335 24.5732 11.0973 24.3998 11.0973C24.2356 11.0973 24.0622 11.0426 23.9527 10.8327L23.0857 9.24482V12.7582C23.0857 13.0502 22.7299 13.1962 22.3739 13.1962C22.018 13.1962 21.6621 13.0502 21.6621 12.7582V7.2372C21.6621 6.71703 22.018 6.52539 22.3739 6.52539C22.885 6.52539 23.104 6.58016 23.4781 7.2372L24.418 8.87979L25.358 7.2372C25.7321 6.58016 25.9512 6.52539 26.4622 6.52539C26.8272 6.52539 27.174 6.71703 27.174 7.2372V12.7582C27.174 13.0502 26.8181 13.1962 26.4622 13.1962C26.1062 13.1962 25.7504 13.0502 25.7504 12.7582V9.33602L24.8744 10.8327Z" fill="#FF4B4B"/>
    <path d="M28.1665 6.95427C28.1665 6.6531 28.5224 6.52539 28.8783 6.52539C29.2342 6.52539 29.5901 6.65318 29.5901 6.95427V12.7582C29.5901 13.0502 29.2342 13.1962 28.8783 13.1962C28.5224 13.1962 28.1665 13.0502 28.1665 12.7582V6.95427Z" fill="#FF4B4B"/>
    <path d="M33.7283 12.813L31.9944 9.65554V12.7583C31.9944 13.0503 31.6385 13.1963 31.2826 13.1963C30.9267 13.1963 30.5708 13.0503 30.5708 12.7583V6.96344C30.5708 6.66227 30.9267 6.52539 31.2826 6.52539C31.7937 6.52539 31.9852 6.57107 32.3321 7.2372L33.8104 10.057V6.95428C33.8104 6.6531 34.1663 6.52539 34.5222 6.52539C34.8781 6.52539 35.234 6.65318 35.234 6.95428V12.7582C35.234 13.0502 34.8781 13.1962 34.5222 13.1962C34.1937 13.1963 33.9017 13.1324 33.7283 12.813Z" fill="#FF4B4B"/>
    <path d="M38.3926 7.76653C37.8724 7.76653 37.5713 8.05854 37.5713 8.67906V11.0974C37.5713 11.7179 37.8725 12.0099 38.3835 12.0099C38.8945 12.0099 39.2047 11.7179 39.2047 11.0974V10.7871H38.6663C38.3926 10.7871 38.2374 10.5225 38.2374 10.2396C38.2374 9.97497 38.3926 9.69213 38.6663 9.69213H40.1995C40.4732 9.69213 40.6283 9.90203 40.6283 10.1393V11.0975C40.6283 12.6671 39.6428 13.2511 38.3835 13.2511C37.1241 13.2511 36.1477 12.6671 36.1477 11.0975V8.67906C36.1477 7.10949 37.1424 6.52539 38.3379 6.52539C39.6429 6.52539 40.6284 7.18243 40.6284 8.34138C40.6284 8.88888 40.4003 9.01667 39.9166 9.01667C39.5333 9.01667 39.2139 8.91631 39.2048 8.58779C39.1957 8.25927 39.1683 7.76653 38.3926 7.76653Z" fill="#FF4B4B"/>
    <path d="M27.0646 18.8046C27.0646 17.9574 24.845 18.1044 24.845 16.466C24.845 15.4157 25.7622 15.0166 26.6374 15.0166C27.0085 15.0166 28.0308 15.0867 28.0308 15.6328C28.0308 15.8218 27.9047 16.2069 27.5967 16.2069C27.3447 16.2069 27.2116 15.9408 26.6375 15.9408C26.1404 15.9408 25.9373 16.1438 25.9373 16.3608C25.9373 17.0611 28.1569 16.928 28.1569 18.6924C28.1569 19.7007 27.4217 20.2468 26.4064 20.2468C25.4892 20.2468 24.719 19.7987 24.719 19.3366C24.719 19.0985 24.9291 18.7484 25.1951 18.7484C25.5242 18.7484 25.7342 19.2665 26.3855 19.2665C26.7075 19.2667 27.0646 19.1406 27.0646 18.8046Z" fill="#FF4B4B"/>
    <path d="M28.6404 18.5655V16.71C28.6404 15.5057 29.3896 15.0576 30.3558 15.0576C31.3221 15.0576 32.0783 15.5057 32.0783 16.71V18.5655C32.0783 19.7699 31.3221 20.2179 30.3558 20.2179C29.3895 20.2179 28.6404 19.7698 28.6404 18.5655ZM30.9859 16.71C30.9859 16.2269 30.7479 16.0099 30.3558 16.0099C29.9638 16.0099 29.7327 16.2269 29.7327 16.71V18.5655C29.7327 19.0486 29.9637 19.2657 30.3558 19.2657C30.748 19.2657 30.9859 19.0486 30.9859 18.5655V16.71Z" fill="#FF4B4B"/>
    <path d="M32.7241 18.5655V16.71C32.7241 15.5057 33.4733 15.0576 34.4396 15.0576C35.4058 15.0576 36.162 15.5057 36.162 16.71V18.5655C36.162 19.7699 35.4059 20.2179 34.4396 20.2179C33.4733 20.2179 32.7241 19.7698 32.7241 18.5655ZM35.0697 16.71C35.0697 16.2269 34.8316 16.0099 34.4396 16.0099C34.0475 16.0099 33.8164 16.2269 33.8164 16.71V18.5655C33.8164 19.0486 34.0474 19.2657 34.4396 19.2657C34.8317 19.2657 35.0697 19.0486 35.0697 18.5655V16.71Z" fill="#FF4B4B"/>
    <path d="M39.2839 19.8818L37.9536 17.4592V19.8398C37.9536 20.0639 37.6805 20.1759 37.4074 20.1759C37.1343 20.1759 36.8613 20.0639 36.8613 19.8398V15.3937C36.8613 15.1626 37.1344 15.0576 37.4074 15.0576C37.7996 15.0576 37.9466 15.0926 38.2127 15.6037L39.3469 17.7673V15.3867C39.3469 15.1557 39.62 15.0576 39.893 15.0576C40.166 15.0576 40.4391 15.1557 40.4391 15.3867V19.8399C40.4391 20.064 40.166 20.176 39.893 20.176C39.6411 20.1759 39.417 20.1269 39.2839 19.8818Z" fill="#FF4B4B"/>
    <path d="M35.0669 20.8623V28.0009L41.3382 20.8623H35.0669Z" fill="#FFF052"/>
  </g>
  <defs>
    <filter id="filter0_d_8902_262803" x="0" y="0" width="50.7773" height="40.001" filterUnits="userSpaceOnUse" color-interpolation-filters="sRGB">
      <feFlood flood-opacity="0" result="BackgroundImageFix"/>
      <feColorMatrix in="SourceAlpha" type="matrix" values="0 0 0 0 0 0 0 0 0 0 0 0 0 0 0 0 0 0 127 0" result="hardAlpha"/>
      <feOffset dy="4"/>
      <feGaussianBlur stdDeviation="4"/>
      <feColorMatrix type="matrix" values="0 0 0 0 0 0 0 0 0 0 0 0 0 0 0 0 0 0 0.26 0"/>
      <feBlend mode="normal" in2="BackgroundImageFix" result="effect1_dropShadow_8902_262803"/>
      <feBlend mode="normal" in="SourceGraphic" in2="effect1_dropShadow_8902_262803" result="shape"/>
    </filter>
  </defs>
</svg>
 